HIERARCHY
ROOT Crab_Bone_002
{
	OFFSET 0.000001 1.809483 1.070690
	CHANNELS 6 Xposition Yposition Zposition Xrotation Yrotation Zrotation
	JOINT Crab_Bone_003
	{
		OFFSET -0.001212 -3.444643 1.330027
		CHANNELS 3 Xrotation Yrotation Zrotation
		JOINT Crab_Bone_004
		{
			OFFSET -0.000258 -0.734549 0.283620
			CHANNELS 3 Xrotation Yrotation Zrotation
			JOINT Crab_Bone_005
			{
				OFFSET -2.212137 2.996329 -3.161722
				CHANNELS 3 Xrotation Yrotation Zrotation
				JOINT Crab_Bone_006
				{
					OFFSET -2.363831 -0.999774 0.737129
					CHANNELS 3 Xrotation Yrotation Zrotation
					JOINT Crab_Bone_007
					{
						OFFSET 0.679981 -1.781121 0.391521
						CHANNELS 3 Xrotation Yrotation Zrotation
						JOINT Crab_Bone_012
						{
							OFFSET 0.167619 -0.705615 0.156840
							CHANNELS 3 Xrotation Yrotation Zrotation
							JOINT Crab_Bone_013
							{
								OFFSET 1.027711 -2.075420 1.136799
								CHANNELS 3 Xrotation Yrotation Zrotation
								End Site
								{
									OFFSET 0.059793 0.725938 2.474936
								}
							}
						}
						JOINT Crab_Bone_014
						{
							OFFSET 0.169967 -0.716239 0.177733
							CHANNELS 3 Xrotation Yrotation Zrotation
							JOINT Crab_Bone_015
							{
								OFFSET 1.177098 -2.213120 -0.871869
								CHANNELS 3 Xrotation Yrotation Zrotation
								End Site
								{
									OFFSET -0.140401 -0.651721 2.568885
								}
							}
						}
					}
				}
			}
		}
		JOINT Crab_Bone_008
		{
			OFFSET -0.000258 -0.734549 0.283620
			CHANNELS 3 Xrotation Yrotation Zrotation
			JOINT Crab_Bone_009
			{
				OFFSET 2.536297 2.452007 -2.009468
				CHANNELS 3 Xrotation Yrotation Zrotation
				JOINT Crab_Bone_010
				{
					OFFSET 1.536116 -0.822250 0.380907
					CHANNELS 3 Xrotation Yrotation Zrotation
					JOINT Crab_Bone_011
					{
						OFFSET -0.216882 -1.545392 0.401011
						CHANNELS 3 Xrotation Yrotation Zrotation
						JOINT Crab_Bone_016
						{
							OFFSET -0.105369 -0.640233 0.098495
							CHANNELS 3 Xrotation Yrotation Zrotation
							JOINT Crab_Bone_017
							{
								OFFSET -0.877063 -1.746863 0.622338
								CHANNELS 3 Xrotation Yrotation Zrotation
								End Site
								{
									OFFSET 0.058713 0.817211 1.880637
								}
							}
						}
						JOINT Crab_Bone_018
						{
							OFFSET -0.117790 -0.696131 0.111856
							CHANNELS 3 Xrotation Yrotation Zrotation
							JOINT Crab_Bone_019
							{
								OFFSET -0.774615 -2.143309 -0.762011
								CHANNELS 3 Xrotation Yrotation Zrotation
								End Site
								{
									OFFSET 0.098373 -1.177132 2.092640
								}
							}
						}
					}
				}
			}
		}
	}
	JOINT Crab_Bone_020
	{
		OFFSET -1.116273 -0.154590 -0.374501
		CHANNELS 3 Xrotation Yrotation Zrotation
		JOINT Crab_Bone_021
		{
			OFFSET -3.118662 1.611093 1.513430
			CHANNELS 3 Xrotation Yrotation Zrotation
			JOINT Crab_Bone_022
			{
				OFFSET -1.588351 2.658805 -1.742729
				CHANNELS 3 Xrotation Yrotation Zrotation
				End Site
				{
					OFFSET -3.122031 -1.424496 0.923547
				}
			}
		}
	}
	JOINT Crab_Bone_023
	{
		OFFSET -1.485358 -0.679445 -0.384127
		CHANNELS 3 Xrotation Yrotation Zrotation
		JOINT Crab_Bone_024
		{
			OFFSET -4.354937 1.041430 2.735311
			CHANNELS 3 Xrotation Yrotation Zrotation
			JOINT Crab_Bone_025
			{
				OFFSET -3.146346 1.140532 -2.766851
				CHANNELS 3 Xrotation Yrotation Zrotation
				End Site
				{
					OFFSET -1.594861 -4.033993 0.197688
				}
			}
		}
	}
	JOINT Crab_Bone_026
	{
		OFFSET -1.641655 -1.332070 -0.435368
		CHANNELS 3 Xrotation Yrotation Zrotation
		JOINT Crab_Bone_027
		{
			OFFSET -4.159019 0.186248 1.795406
			CHANNELS 3 Xrotation Yrotation Zrotation
			JOINT Crab_Bone_028
			{
				OFFSET -3.475782 0.547989 -1.456533
				CHANNELS 3 Xrotation Yrotation Zrotation
				End Site
				{
					OFFSET -0.634418 -3.753667 0.101702
				}
			}
		}
	}
	JOINT Crab_Bone_029
	{
		OFFSET -1.691511 -1.877323 -0.077977
		CHANNELS 3 Xrotation Yrotation Zrotation
		JOINT Crab_Bone_030
		{
			OFFSET -4.567539 -1.546834 1.375860
			CHANNELS 3 Xrotation Yrotation Zrotation
			JOINT Crab_Bone_031
			{
				OFFSET -2.285981 -1.723023 -1.671352
				CHANNELS 3 Xrotation Yrotation Zrotation
				End Site
				{
					OFFSET 2.513823 -2.117836 -0.428249
				}
			}
		}
	}
	JOINT Crab_Bone_020_Bis
	{
		OFFSET 1.052121 -0.155333 -0.407179
		CHANNELS 3 Xrotation Yrotation Zrotation
		JOINT Crab_Bone_021_Bis
		{
			OFFSET 3.269777 1.689566 1.700762
			CHANNELS 3 Xrotation Yrotation Zrotation
			JOINT Crab_Bone_022_Bis
			{
				OFFSET 1.433824 3.291166 -1.667421
				CHANNELS 3 Xrotation Yrotation Zrotation
				End Site
				{
					OFFSET -3.624812 1.364690 -0.816260
				}
			}
		}
	}
	JOINT Crab_Bone_023_Bis
	{
		OFFSET 1.420852 -0.680440 -0.618396
		CHANNELS 3 Xrotation Yrotation Zrotation
		JOINT Crab_Bone_024_Bis
		{
			OFFSET 3.158329 0.755220 2.314403
			CHANNELS 3 Xrotation Yrotation Zrotation
			JOINT Crab_Bone_025_Bis
			{
				OFFSET 3.724785 1.320794 -2.253904
				CHANNELS 3 Xrotation Yrotation Zrotation
				End Site
				{
					OFFSET -1.615193 4.246540 -0.238007
				}
			}
		}
	}
	JOINT Crab_Bone_026_Bis
	{
		OFFSET 1.576704 -1.333172 -0.624875
		CHANNELS 3 Xrotation Yrotation Zrotation
		JOINT Crab_Bone_027_Bis
		{
			OFFSET 3.858073 0.173228 2.214125
			CHANNELS 3 Xrotation Yrotation Zrotation
			JOINT Crab_Bone_028_Bis
			{
				OFFSET 3.076779 0.421557 -1.941671
				CHANNELS 3 Xrotation Yrotation Zrotation
				End Site
				{
					OFFSET -0.558715 3.617706 -0.120044
				}
			}
		}
	}
	JOINT Crab_Bone_029_Bis
	{
		OFFSET 1.626128 -2.007151 -0.390477
		CHANNELS 3 Xrotation Yrotation Zrotation
		JOINT Crab_Bone_030_Bis
		{
			OFFSET 3.013092 -0.711103 1.404963
			CHANNELS 3 Xrotation Yrotation Zrotation
			JOINT Crab_Bone_031_Bis
			{
				OFFSET 2.645858 -2.135076 -1.922209
				CHANNELS 3 Xrotation Yrotation Zrotation
				End Site
				{
					OFFSET 2.656470 2.760786 0.758435
				}
			}
		}
	}
}
MOTION
Frames: 8
Frame Time: 0.033333
0.000000 1.809483 1.070688 0.692296 0.001417 0.019734 0.000002 0.000000 -0.000000 -0.640300 -3.210611 0.665600 -0.104922 0.928649 0.949781 -0.231489 -1.139394 -4.970787 0.000002 0.000002 -0.000001 4.945114 2.468209 -0.070490 0.000004 0.000001 0.000007 -7.092769 -3.775538 -0.201592 -0.000000 0.000001 0.000004 -0.640606 0.424027 -2.160211 0.225865 1.421420 2.043705 0.000014 0.000000 0.000004 0.000001 -0.000002 -0.000001 3.084201 -1.514096 0.118995 -0.000001 0.000004 0.000008 -2.678696 0.941355 0.086058 -0.000002 0.000003 0.000011 -0.243680 -0.283171 0.054678 -0.081220 -0.093096 -0.068173 0.000004 0.000001 -0.000003 -0.002604 -0.050258 0.096687 0.000415 0.001438 0.000113 -0.000000 -0.000001 0.000005 0.012876 0.124491 0.021874 0.000390 0.003766 0.000505 0.000003 0.000010 -0.000000 -0.255697 0.574127 0.015701 -0.000262 0.000591 -0.000245 -0.000011 0.000006 -0.000009 -0.298958 0.260273 -0.106483 -0.107605 0.100718 0.106637 0.000001 -0.000002 -0.000001 0.001261 0.043348 -0.111137 -0.000774 0.002567 0.000206 -0.000006 0.000009 -0.000010 0.008897 -0.178647 -0.115830 -0.000314 0.003516 0.000276 -0.000001 0.000018 0.000005 -0.252679 -0.523541 -0.102139 0.000796 0.001748 -0.000834 -0.000000 0.000001 0.000007 
0.000000 1.809483 1.070688 0.695322 0.001413 0.019732 0.000004 -0.000000 -0.000000 -0.638647 -3.208991 0.662725 -0.105355 0.932119 0.953344 -0.231958 -1.144748 -4.979517 0.000003 0.000001 -0.000004 4.945115 2.468209 -0.070490 0.000005 0.000001 0.000005 -7.092768 -3.775538 -0.201592 0.000000 0.000004 0.000002 -0.633227 0.444116 -2.119307 0.223473 1.404443 2.019380 0.000010 0.000000 0.000004 0.000003 -0.000003 -0.000002 3.084199 -1.514095 0.118993 -0.000001 0.000003 0.000007 -2.678696 0.941353 0.086059 0.000003 0.000004 0.000008 -0.249494 -0.280256 0.055066 -0.081614 -0.093544 -0.068505 0.000006 0.000000 -0.000006 -0.002693 -0.050412 0.097218 0.000416 0.001447 0.000110 -0.000002 -0.000008 0.000003 0.012945 0.125123 0.022094 0.000390 0.003769 0.000505 0.000004 0.000012 0.000001 -0.256930 0.576604 0.015874 -0.000264 0.000595 -0.000245 -0.000011 0.000003 -0.000003 -0.300198 0.261513 -0.106839 -0.108042 0.101132 0.107066 0.000000 -0.000003 -0.000002 0.003734 0.044334 -0.111480 -0.000776 0.002565 0.000198 -0.000006 0.000007 -0.000006 0.003101 -0.179854 -0.116351 -0.000314 0.003514 0.000275 -0.000001 0.000012 0.000005 -0.259055 -0.523317 -0.102465 0.000795 0.001753 -0.000834 0.000002 0.000001 0.000009 
0.000000 1.809483 1.070688 0.697844 0.001413 0.019732 0.000002 -0.000000 -0.000000 -0.641223 -3.195682 0.657166 -0.105297 0.931681 0.952898 -0.231536 -1.142307 -4.966490 0.000002 0.000001 -0.000002 4.945115 2.468209 -0.070488 0.000002 0.000002 0.000005 -7.092767 -3.775538 -0.201589 0.000001 0.000002 0.000006 -0.631726 0.466251 -2.072029 0.220828 1.385796 1.992667 0.000015 -0.000001 0.000006 0.000001 -0.000002 -0.000003 3.084199 -1.514094 0.118995 -0.000000 0.000002 0.000007 -2.678698 0.941354 0.086057 0.000001 0.000004 0.000006 -0.254845 -0.277365 0.055392 -0.081953 -0.093922 -0.068795 0.000003 0.000001 -0.000002 -0.002789 -0.050538 0.097659 0.000417 0.001445 0.000112 -0.000001 -0.000001 0.000002 0.013627 0.125589 0.022257 0.000390 0.003769 0.000506 0.000003 0.000009 0.000002 -0.260002 0.577632 0.015889 -0.000260 0.000589 -0.000244 -0.000012 0.000003 -0.000006 -0.301241 0.262552 -0.107122 -0.108407 0.101469 0.107418 0.000000 -0.000003 -0.000002 -0.004320 0.042117 -0.111896 -0.000774 0.002567 0.000201 -0.000006 0.000006 -0.000011 -0.003111 -0.180982 -0.116810 -0.000313 0.003514 0.000276 -0.000001 0.000016 0.000004 -0.265055 -0.522793 -0.102735 0.000795 0.001749 -0.000832 -0.000001 0.000003 0.000011 
0.000000 1.809483 1.070688 0.700095 0.001413 0.019732 0.000002 -0.000000 -0.000000 -0.639848 -3.165873 0.647802 -0.104856 0.928082 0.949210 -0.230294 -1.133953 -4.929797 0.000002 0.000002 -0.000002 4.945115 2.468211 -0.070492 0.000006 0.000002 0.000005 -7.092768 -3.775539 -0.201589 0.000002 0.000001 0.000007 -0.624094 0.492176 -2.021988 0.217960 1.365528 1.963644 0.000011 0.000001 0.000001 0.000002 -0.000003 -0.000003 3.084203 -1.514096 0.118993 0.000003 0.000002 0.000003 -2.678696 0.941358 0.086061 -0.000000 0.000004 0.000008 -0.251110 -0.282175 0.055646 -0.082245 -0.094256 -0.069044 0.000003 0.000002 -0.000000 -0.002878 -0.050644 0.098059 0.000416 0.001442 0.000114 -0.000002 -0.000002 0.000002 0.008103 0.126588 0.022557 0.000389 0.003768 0.000505 0.000003 0.000010 0.000001 -0.272959 0.573585 0.015269 -0.000262 0.000594 -0.000246 -0.000012 0.000006 -0.000005 -0.302171 0.263485 -0.107382 -0.108723 0.101768 0.107730 -0.000002 -0.000003 -0.000000 -0.006626 0.041585 -0.112206 -0.000776 0.002569 0.000207 -0.000006 0.000006 -0.000011 0.003158 -0.180996 -0.116946 -0.000313 0.003514 0.000275 -0.000001 0.000012 0.000004 -0.265274 -0.524740 -0.102973 0.000798 0.001751 -0.000835 0.000001 0.000000 0.000009 
0.000000 1.809483 1.070688 0.701908 0.001410 0.019730 -0.000001 0.000000 -0.000000 -0.631633 -3.119422 0.634928 -0.104060 0.921563 0.942526 -0.228260 -1.120522 -4.870184 0.000003 0.000002 -0.000001 4.945115 2.468214 -0.070495 0.000002 0.000002 0.000007 -7.092771 -3.775538 -0.201591 0.000002 0.000004 0.000006 -0.610185 0.521887 -1.969679 0.214884 1.343875 1.932619 0.000015 -0.000000 0.000003 0.000003 -0.000002 -0.000001 3.084201 -1.514095 0.118995 0.000001 0.000003 0.000008 -2.678685 0.941365 0.086065 -0.000001 0.000001 0.000008 -0.247490 -0.286579 0.055838 -0.082478 -0.094525 -0.069237 0.000005 0.000003 0.000002 -0.002932 -0.050745 0.098386 0.000417 0.001447 0.000112 -0.000002 -0.000006 0.000001 0.002064 0.127556 0.022849 0.000390 0.003766 0.000504 0.000004 0.000012 0.000001 -0.280248 0.571869 0.014958 -0.000263 0.000588 -0.000239 -0.000011 0.000005 -0.000005 -0.302921 0.264224 -0.107591 -0.108991 0.102016 0.107991 0.000001 -0.000002 -0.000001 -0.000559 0.043536 -0.112351 -0.000776 0.002567 0.000203 -0.000006 0.000009 -0.000008 0.009274 -0.180921 -0.117034 -0.000313 0.003512 0.000275 -0.000001 0.000016 0.000004 -0.266452 -0.525839 -0.103164 0.000795 0.001749 -0.000836 0.000004 0.000002 0.000007 
0.000000 1.809483 1.070688 0.703288 0.001411 0.019726 0.000000 -0.000000 -0.000000 -0.621520 -3.057096 0.617632 -0.102924 0.912223 0.932959 -0.225478 -1.102283 -4.789281 0.000003 0.000002 -0.000001 4.945115 2.468213 -0.070492 0.000005 0.000003 0.000008 -7.092768 -3.775538 -0.201591 0.000002 0.000002 0.000006 -0.602954 0.552838 -1.911856 0.211602 1.320991 1.899828 0.000009 0.000000 0.000002 0.000003 -0.000002 -0.000000 3.084199 -1.514095 0.118997 -0.000002 0.000005 0.000012 -2.678696 0.941359 0.086064 0.000001 0.000003 0.000009 -0.248424 -0.286719 0.056012 -0.082665 -0.094744 -0.069395 0.000004 0.000001 -0.000002 -0.002963 -0.050825 0.098622 0.000415 0.001442 0.000112 -0.000002 -0.000008 0.000001 0.008838 0.127184 0.022776 0.000390 0.003771 0.000506 0.000004 0.000012 0.000001 -0.280573 0.573117 0.015033 -0.000262 0.000589 -0.000244 -0.000009 0.000005 -0.000004 -0.303494 0.264773 -0.107748 -0.109190 0.102217 0.108203 -0.000003 -0.000003 0.000001 -0.001262 0.043441 -0.112534 -0.000777 0.002568 0.000204 -0.000007 0.000006 -0.000012 0.003148 -0.181783 -0.117352 -0.000314 0.003512 0.000275 -0.000002 0.000018 0.000004 -0.261929 -0.529198 -0.103318 0.000795 0.001754 -0.000831 0.000002 0.000004 0.000010 
0.000000 1.809483 1.070688 0.704316 0.001414 0.019724 0.000002 -0.000000 -0.000000 -0.597077 -2.981597 0.599913 -0.101474 0.900199 0.920629 -0.221965 -1.079587 -4.688589 0.000003 0.000002 -0.000000 4.945113 2.468212 -0.070490 0.000008 0.000002 0.000005 -7.092766 -3.775536 -0.201590 -0.000000 0.000002 0.000006 -0.588117 0.587359 -1.852873 0.208153 1.296990 1.865429 0.000012 -0.000001 0.000004 0.000003 -0.000002 -0.000002 3.084201 -1.514095 0.118995 0.000001 0.000001 0.000001 -2.678694 0.941357 0.086063 -0.000003 0.000002 0.000010 -0.248777 -0.287134 0.056154 -0.082803 -0.094908 -0.069516 0.000004 0.000001 -0.000006 -0.002427 -0.051047 0.098850 0.000416 0.001445 0.000111 -0.000003 -0.000004 0.000003 0.008935 0.127366 0.022845 0.000390 0.003771 0.000504 0.000003 0.000012 0.000001 -0.276145 0.576342 0.015408 -0.000260 0.000587 -0.000242 -0.000012 0.000002 -0.000004 -0.303918 0.265196 -0.107868 -0.109354 0.102358 0.108360 0.000002 -0.000002 -0.000001 -0.000974 0.043611 -0.112660 -0.000776 0.002567 0.000204 -0.000005 0.000006 -0.000008 -0.002300 -0.182497 -0.117610 -0.000314 0.003514 0.000275 -0.000001 0.000016 0.000004 -0.256490 -0.532676 -0.103424 0.000791 0.001755 -0.000835 -0.000000 0.000003 0.000008 
0.000000 1.809483 1.070688 0.705054 0.001416 0.019730 0.000000 -0.000000 -0.000000 -0.569941 -2.892524 0.578722 -0.099710 0.885641 0.905715 -0.217746 -1.052748 -4.569651 0.000002 0.000002 0.000001 4.945116 2.468214 -0.070491 0.000003 0.000001 0.000005 -7.092768 -3.775538 -0.201592 -0.000000 0.000002 0.000006 -0.578919 0.622789 -1.789347 0.204555 1.272000 1.829606 0.000014 0.000000 0.000002 0.000003 -0.000002 -0.000002 3.084199 -1.514094 0.118997 -0.000004 0.000003 0.000007 -2.678692 0.941360 0.086058 -0.000003 0.000003 0.000008 -0.249045 -0.287429 0.056232 -0.082873 -0.094997 -0.069574 0.000004 0.000001 0.000001 -0.007540 -0.049573 0.098542 0.000419 0.001438 0.000111 -0.000001 -0.000008 0.000001 0.001790 0.128210 0.023080 0.000390 0.003769 0.000504 0.000004 0.000012 0.000001 -0.270526 0.579848 0.015852 -0.000261 0.000590 -0.000248 -0.000007 0.000005 -0.000009 -0.304219 0.265512 -0.107961 -0.109445 0.102447 0.108455 0.000001 -0.000003 -0.000000 -0.001573 0.043473 -0.112759 -0.000776 0.002567 0.000204 -0.000007 0.000006 -0.000008 -0.002260 -0.182657 -0.117707 -0.000314 0.003516 0.000276 -0.000001 0.000018 0.000005 -0.262670 -0.530479 -0.103503 0.000795 0.001751 -0.000835 0.000002 0.000004 0.000004 
